<svg width="24" height="24" viewBox="0 0 24 24" fill="none" xmlns="http://www.w3.org/2000/svg">
<path d="M8.09134 7.21716L3.30751 12.0017L8.09134 16.7841C8.6257 17.3192 8.6257 18.1872 8.09134 18.7215C7.8228 18.9901 7.4741 19.123 7.12266 19.123C6.77122 19.123 6.42252 18.9901 6.15397 18.7215L0.40145 12.9697C0.144549 12.7135 0 12.3648 0 12.0017C0 11.6393 0.144549 11.2899 0.40145 11.033L6.15397 5.27978C6.68901 4.74543 7.5563 4.74543 8.09134 5.27978C8.6257 5.81482 8.6257 6.68075 8.09134 7.21716ZM23.5985 11.0323L17.8467 5.2791C17.3117 4.74474 16.4444 4.74474 15.9093 5.2791C15.3743 5.81414 15.3743 6.68143 15.9093 7.21647L20.6925 12.001L15.9093 16.7841C15.3743 17.3192 15.3743 18.1872 15.9093 18.7215C16.1779 18.9901 16.5273 19.123 16.878 19.123C17.2288 19.123 17.5789 18.9901 17.8467 18.7215L23.5985 12.9697C23.8554 12.7128 24 12.3641 24 12.001C24 11.6393 23.8554 11.2892 23.5985 11.0323ZM14.3947 2.62446C13.6575 2.43469 12.9142 2.87999 12.7265 3.61164L8.61611 19.7094C8.42977 20.4424 8.87164 21.1891 9.60397 21.3768C9.71838 21.4063 9.83279 21.42 9.94445 21.42C10.5569 21.42 11.1132 21.0069 11.2714 20.389L15.3818 4.29123C15.5695 3.55752 15.127 2.81148 14.3947 2.62446Z" fill="url(#paint0_linear_42_86)"/>
<defs>
<linearGradient id="paint0_linear_42_86" x1="12" y1="2.58069" x2="12" y2="21.42" gradientUnits="userSpaceOnUse">
<stop stop-color="#52CBFF"/>
<stop offset="1" stop-color="#00A1E7"/>
</linearGradient>
</defs>
</svg>
