<svg width="24" height="24" viewBox="0 0 24 24" fill="none" xmlns="http://www.w3.org/2000/svg">
<path d="M5.85 9.46877C5.70938 9.2719 5.65312 9.15002 5.68125 9.10315C5.7 9.05627 5.83125 9.03752 6.04688 9.05627C6.2625 9.07502 6.44063 9.10315 6.59063 9.14065C6.73125 9.17815 6.85312 9.2344 6.94687 9.30002C7.04062 9.36565 7.11563 9.44065 7.1625 9.54377C7.21875 9.63752 7.25625 9.7594 7.29375 9.89065C7.35938 10.1531 7.34063 10.3313 7.24688 10.425C7.14375 10.5188 7.00312 10.5 6.81562 10.3688C6.61875 10.2375 6.45 10.1063 6.3 9.97502C6.14062 9.85315 5.99063 9.67502 5.85 9.46877ZM3.81563 17.8219C4.26562 17.625 4.65937 17.4281 4.99687 17.2219C5.325 17.025 5.61562 16.8094 5.86875 16.5844C6.1125 16.3688 6.3375 16.125 6.525 15.8625C6.7125 15.6094 6.88125 15.3188 7.03125 15C7.15312 15.1125 7.26563 15.225 7.3875 15.3281C7.5 15.4313 7.62187 15.5344 7.74375 15.6469C7.86562 15.7594 8.00625 15.8719 8.14688 16.0031C8.2875 16.1344 8.45625 16.2656 8.64375 16.425C8.70937 16.4719 8.775 16.5094 8.84063 16.5188C8.90625 16.5281 9 16.5188 9.13125 16.4625C9.25313 16.4156 9.4125 16.3313 9.60938 16.2C9.80625 16.0781 10.05 15.9094 10.35 15.6938C10.5 15.5906 10.575 15.5063 10.5656 15.4406C10.5562 15.375 10.4719 15.3469 10.3125 15.3563C10.0219 15.3656 9.75937 15.3656 9.53437 15.3469C9.3 15.3281 9.06563 15.2906 8.84063 15.2156C8.61563 15.1406 8.38125 15.0375 8.1375 14.8969C7.89375 14.7563 7.6125 14.5594 7.28437 14.3156C7.37812 13.95 7.45312 13.5656 7.50937 13.1531C7.5375 12.9188 7.56563 12.75 7.58438 12.6281C7.60313 12.5156 7.63125 12.4031 7.66875 12.3188C7.69688 12.2438 7.70625 12.1875 7.71563 12.1406C7.725 12.0938 7.70625 12.0469 7.67813 11.9906C7.64062 11.9438 7.58437 11.8875 7.5 11.8313C7.41563 11.775 7.29375 11.7 7.13437 11.6156C7.35938 11.5313 7.6125 11.4563 7.875 11.3719C8.12813 11.2875 8.40938 11.2031 8.7 11.1188C8.98125 11.0344 9.12187 10.9406 9.13125 10.8281C9.14062 10.7156 9.04688 10.6125 8.83125 10.5C8.69062 10.425 8.55938 10.3969 8.42813 10.4156C8.29688 10.4344 8.12813 10.5 7.92188 10.6219C7.86562 10.6594 7.75312 10.7063 7.60312 10.7719C7.44375 10.8375 7.26562 10.9125 7.04062 11.0063C6.81562 11.1 6.57188 11.1938 6.30938 11.2969C6.0375 11.4 5.76562 11.5031 5.49375 11.5969C5.22187 11.7 4.95938 11.7844 4.725 11.8594C4.48125 11.9344 4.29375 11.9906 4.15312 12.0094C3.79688 12.0844 3.60938 12.1594 3.6 12.2344C3.6 12.3094 3.74062 12.3844 4.0125 12.4594C4.125 12.4875 4.22813 12.5156 4.30313 12.5156C4.37813 12.525 4.4625 12.525 4.5375 12.5156C4.6125 12.5063 4.6875 12.4875 4.7625 12.4688C4.8375 12.4406 4.92187 12.4031 5.025 12.3656C5.175 12.2906 5.39062 12.2063 5.67188 12.1031C5.94375 12.0094 6.29062 11.8781 6.72187 11.7281C6.80625 11.9813 6.85312 12.2906 6.85312 12.6469C6.85312 13.0031 6.81562 13.4063 6.72187 13.8656C6.6 13.7625 6.46875 13.65 6.32812 13.5281C6.1875 13.4063 6.05625 13.2844 5.925 13.1625C5.775 13.0219 5.625 12.9281 5.48438 12.8813C5.33437 12.8344 5.16563 12.8344 4.96875 12.8813C4.65937 12.9656 4.5 13.0594 4.50937 13.1719C4.50937 13.2844 4.63125 13.3406 4.86563 13.35C4.95 13.3594 5.03437 13.3781 5.11875 13.4063C5.20312 13.4344 5.29688 13.4906 5.41875 13.575C5.54063 13.6594 5.69063 13.7813 5.85938 13.9313C6.02812 14.0813 6.25313 14.2781 6.51562 14.5219C6.40312 14.7938 6.27188 15.0469 6.13125 15.2719C5.99063 15.5063 5.8125 15.7406 5.61563 15.9563C5.40938 16.1813 5.175 16.4063 4.89375 16.6313C4.6125 16.8656 4.275 17.1094 3.88125 17.3625C3.47813 17.625 3.27188 17.8031 3.27188 17.8875C3.28125 18.0094 3.46875 17.9719 3.81563 17.8219ZM23.4844 7.66877V23.1656L13.0219 19.7531L0.984375 23.7563V7.1344L3.7875 6.1969V0.975024L11.4 3.66565L21.6844 0.243774V7.0969L23.4844 7.66877ZM11.6437 4.74377L2.09062 7.93127V22.2L11.6437 19.0219V4.74377ZM20.5687 6.74065V1.78127L12.9469 4.31252L20.5687 6.74065ZM21.2812 18.9281L18.4219 8.62502L16.5 8.02502L13.6031 16.5375L15.375 17.0906L15.9188 15.3375L18.9094 16.275L19.4437 18.3656L21.2812 18.9281ZM16.3875 13.8469L18.4688 14.4938L17.4469 10.4719L16.3875 13.8469Z" fill="url(#paint0_linear_41_52)"/>
<defs>
<linearGradient id="paint0_linear_41_52" x1="12.2344" y1="0.243774" x2="12.2344" y2="23.7563" gradientUnits="userSpaceOnUse">
<stop stop-color="#40C5FF"/>
<stop offset="1" stop-color="#00A1E7"/>
</linearGradient>
</defs>
</svg>
